# Blender 5.0.1
# www.blender.org
mtllib cylinder_chess_piece.mtl
o Cylinder
v 0.000000 -0.091101 -1.000000
v 0.000000 0.091101 -1.000000
v 0.098017 -0.091101 -0.995185
v 0.098017 0.091101 -0.995185
v 0.195090 -0.091101 -0.980785
v 0.195090 0.091101 -0.980785
v 0.290285 -0.091101 -0.956940
v 0.290285 0.091101 -0.956940
v 0.382683 -0.091101 -0.923880
v 0.382683 0.091101 -0.923880
v 0.471397 -0.091101 -0.881921
v 0.471397 0.091101 -0.881921
v 0.555570 -0.091101 -0.831470
v 0.555570 0.091101 -0.831470
v 0.634393 -0.091101 -0.773010
v 0.634393 0.091101 -0.773010
v 0.707107 -0.091101 -0.707107
v 0.707107 0.091101 -0.707107
v 0.773010 -0.091101 -0.634393
v 0.773010 0.091101 -0.634393
v 0.831470 -0.091101 -0.555570
v 0.831470 0.091101 -0.555570
v 0.881921 -0.091101 -0.471397
v 0.881921 0.091101 -0.471397
v 0.923880 -0.091101 -0.382683
v 0.923880 0.091101 -0.382683
v 0.956940 -0.091101 -0.290285
v 0.956940 0.091101 -0.290285
v 0.980785 -0.091101 -0.195090
v 0.980785 0.091101 -0.195090
v 0.995185 -0.091101 -0.098017
v 0.995185 0.091101 -0.098017
v 1.000000 -0.091101 0.000000
v 1.000000 0.091101 0.000000
v 0.995185 -0.091101 0.098017
v 0.995185 0.091101 0.098017
v 0.980785 -0.091101 0.195090
v 0.980785 0.091101 0.195090
v 0.956940 -0.091101 0.290285
v 0.956940 0.091101 0.290285
v 0.923880 -0.091101 0.382683
v 0.923880 0.091101 0.382683
v 0.881921 -0.091101 0.471397
v 0.881921 0.091101 0.471397
v 0.831470 -0.091101 0.555570
v 0.831470 0.091101 0.555570
v 0.773010 -0.091101 0.634393
v 0.773010 0.091101 0.634393
v 0.707107 -0.091101 0.707107
v 0.707107 0.091101 0.707107
v 0.634393 -0.091101 0.773010
v 0.634393 0.091101 0.773010
v 0.555570 -0.091101 0.831470
v 0.555570 0.091101 0.831470
v 0.471397 -0.091101 0.881921
v 0.471397 0.091101 0.881921
v 0.382683 -0.091101 0.923880
v 0.382683 0.091101 0.923880
v 0.290285 -0.091101 0.956940
v 0.290285 0.091101 0.956940
v 0.195090 -0.091101 0.980785
v 0.195090 0.091101 0.980785
v 0.098017 -0.091101 0.995185
v 0.098017 0.091101 0.995185
v 0.000000 -0.091101 1.000000
v 0.000000 0.091101 1.000000
v -0.098017 -0.091101 0.995185
v -0.098017 0.091101 0.995185
v -0.195090 -0.091101 0.980785
v -0.195090 0.091101 0.980785
v -0.290285 -0.091101 0.956940
v -0.290285 0.091101 0.956940
v -0.382683 -0.091101 0.923880
v -0.382683 0.091101 0.923880
v -0.471397 -0.091101 0.881921
v -0.471397 0.091101 0.881921
v -0.555570 -0.091101 0.831470
v -0.555570 0.091101 0.831470
v -0.634393 -0.091101 0.773010
v -0.634393 0.091101 0.773010
v -0.707107 -0.091101 0.707107
v -0.707107 0.091101 0.707107
v -0.773010 -0.091101 0.634393
v -0.773010 0.091101 0.634393
v -0.831470 -0.091101 0.555570
v -0.831470 0.091101 0.555570
v -0.881921 -0.091101 0.471397
v -0.881921 0.091101 0.471397
v -0.923880 -0.091101 0.382683
v -0.923880 0.091101 0.382683
v -0.956940 -0.091101 0.290285
v -0.956940 0.091101 0.290285
v -0.980785 -0.091101 0.195090
v -0.980785 0.091101 0.195090
v -0.995185 -0.091101 0.098017
v -0.995185 0.091101 0.098017
v -1.000000 -0.091101 0.000000
v -1.000000 0.091101 0.000000
v -0.995185 -0.091101 -0.098017
v -0.995185 0.091101 -0.098017
v -0.980785 -0.091101 -0.195090
v -0.980785 0.091101 -0.195090
v -0.956940 -0.091101 -0.290285
v -0.956940 0.091101 -0.290285
v -0.923880 -0.091101 -0.382683
v -0.923880 0.091101 -0.382683
v -0.881921 -0.091101 -0.471397
v -0.881921 0.091101 -0.471397
v -0.831470 -0.091101 -0.555570
v -0.831470 0.091101 -0.555570
v -0.773010 -0.091101 -0.634393
v -0.773010 0.091101 -0.634393
v -0.707107 -0.091101 -0.707107
v -0.707107 0.091101 -0.707107
v -0.634393 -0.091101 -0.773010
v -0.634393 0.091101 -0.773010
v -0.555570 -0.091101 -0.831470
v -0.555570 0.091101 -0.831470
v -0.471397 -0.091101 -0.881921
v -0.471397 0.091101 -0.881921
v -0.382683 -0.091101 -0.923880
v -0.382683 0.091101 -0.923880
v -0.290285 -0.091101 -0.956940
v -0.290285 0.091101 -0.956940
v -0.195090 -0.091101 -0.980785
v -0.195090 0.091101 -0.980785
v -0.098017 -0.091101 -0.995185
v -0.098017 0.091101 -0.995185
vn 0.0491 -0.0000 -0.9988
vn 0.1467 -0.0000 -0.9892
vn 0.2430 -0.0000 -0.9700
vn 0.3369 -0.0000 -0.9415
vn 0.4276 -0.0000 -0.9040
vn 0.5141 -0.0000 -0.8577
vn 0.5957 -0.0000 -0.8032
vn 0.6716 -0.0000 -0.7410
vn 0.7410 -0.0000 -0.6716
vn 0.8032 -0.0000 -0.5957
vn 0.8577 -0.0000 -0.5141
vn 0.9040 -0.0000 -0.4276
vn 0.9415 -0.0000 -0.3369
vn 0.9700 -0.0000 -0.2430
vn 0.9892 -0.0000 -0.1467
vn 0.9988 -0.0000 -0.0491
vn 0.9988 -0.0000 0.0491
vn 0.9892 -0.0000 0.1467
vn 0.9700 -0.0000 0.2430
vn 0.9415 -0.0000 0.3369
vn 0.9040 -0.0000 0.4276
vn 0.8577 -0.0000 0.5141
vn 0.8032 -0.0000 0.5957
vn 0.7410 -0.0000 0.6716
vn 0.6716 -0.0000 0.7410
vn 0.5957 -0.0000 0.8032
vn 0.5141 -0.0000 0.8577
vn 0.4276 -0.0000 0.9040
vn 0.3369 -0.0000 0.9415
vn 0.2430 -0.0000 0.9700
vn 0.1467 -0.0000 0.9892
vn 0.0491 -0.0000 0.9988
vn -0.0491 -0.0000 0.9988
vn -0.1467 -0.0000 0.9892
vn -0.2430 -0.0000 0.9700
vn -0.3369 -0.0000 0.9415
vn -0.4276 -0.0000 0.9040
vn -0.5141 -0.0000 0.8577
vn -0.5957 -0.0000 0.8032
vn -0.6716 -0.0000 0.7410
vn -0.7410 -0.0000 0.6716
vn -0.8032 -0.0000 0.5957
vn -0.8577 -0.0000 0.5141
vn -0.9040 -0.0000 0.4276
vn -0.9415 -0.0000 0.3369
vn -0.9700 -0.0000 0.2430
vn -0.9892 -0.0000 0.1467
vn -0.9988 -0.0000 0.0491
vn -0.9988 -0.0000 -0.0491
vn -0.9892 -0.0000 -0.1467
vn -0.9700 -0.0000 -0.2430
vn -0.9415 -0.0000 -0.3369
vn -0.9040 -0.0000 -0.4276
vn -0.8577 -0.0000 -0.5141
vn -0.8032 -0.0000 -0.5957
vn -0.7410 -0.0000 -0.6716
vn -0.6716 -0.0000 -0.7410
vn -0.5957 -0.0000 -0.8032
vn -0.5141 -0.0000 -0.8577
vn -0.4276 -0.0000 -0.9040
vn -0.3369 -0.0000 -0.9415
vn -0.2430 -0.0000 -0.9700
vn -0.0000 1.0000 -0.0000
vn -0.1467 -0.0000 -0.9892
vn -0.0491 -0.0000 -0.9988
vn -0.0000 -1.0000 -0.0000
vt 0.956098 0.954761
vt 0.956098 0.982395
vt 0.941845 0.982395
vt 0.941845 0.954761
vt 0.927592 0.982395
vt 0.927592 0.954761
vt 0.913339 0.982395
vt 0.913339 0.954761
vt 0.899086 0.982395
vt 0.899086 0.954761
vt 0.884833 0.982395
vt 0.884833 0.954761
vt 0.870580 0.982395
vt 0.870580 0.954761
vt 0.856327 0.982395
vt 0.856327 0.954761
vt 0.842074 0.982395
vt 0.842074 0.954761
vt 0.827821 0.982395
vt 0.827821 0.954761
vt 0.813568 0.982395
vt 0.813568 0.954761
vt 0.799315 0.982395
vt 0.799315 0.954761
vt 0.785062 0.982395
vt 0.785062 0.954761
vt 0.770808 0.982395
vt 0.770808 0.954761
vt 0.756555 0.982395
vt 0.756555 0.954761
vt 0.742302 0.982395
vt 0.742302 0.954761
vt 0.728049 0.982395
vt 0.728049 0.954761
vt 0.713796 0.982395
vt 0.713796 0.954761
vt 0.699543 0.982395
vt 0.699543 0.954761
vt 0.685290 0.982395
vt 0.685290 0.954761
vt 0.671037 0.982395
vt 0.671037 0.954761
vt 0.656784 0.982395
vt 0.656784 0.954761
vt 0.642531 0.982395
vt 0.642531 0.954761
vt 0.628278 0.982395
vt 0.628278 0.954761
vt 0.614025 0.982395
vt 0.614025 0.954761
vt 0.599772 0.982395
vt 0.599772 0.954761
vt 0.585518 0.982395
vt 0.585518 0.954761
vt 0.571265 0.982395
vt 0.571265 0.954761
vt 0.557012 0.982395
vt 0.557012 0.954761
vt 0.542759 0.982395
vt 0.542759 0.954761
vt 0.528506 0.982395
vt 0.528506 0.954761
vt 0.514253 0.982395
vt 0.514253 0.954761
vt 0.500000 0.982395
vt 0.500000 0.954761
vt 0.485747 0.982395
vt 0.485747 0.954761
vt 0.471494 0.982395
vt 0.471494 0.954761
vt 0.457241 0.982395
vt 0.457241 0.954761
vt 0.442988 0.982395
vt 0.442988 0.954761
vt 0.428735 0.982395
vt 0.428735 0.954761
vt 0.414482 0.982395
vt 0.414482 0.954761
vt 0.400228 0.982395
vt 0.400228 0.954761
vt 0.385975 0.982395
vt 0.385975 0.954761
vt 0.371722 0.982395
vt 0.371722 0.954761
vt 0.357469 0.982395
vt 0.357469 0.954761
vt 0.343216 0.982395
vt 0.343216 0.954761
vt 0.328963 0.982395
vt 0.328963 0.954761
vt 0.314710 0.982395
vt 0.314710 0.954761
vt 0.300457 0.982395
vt 0.300457 0.954761
vt 0.286204 0.982395
vt 0.286204 0.954761
vt 0.271951 0.982395
vt 0.271951 0.954761
vt 0.257698 0.982395
vt 0.257698 0.954761
vt 0.243445 0.982395
vt 0.243445 0.954761
vt 0.229192 0.982395
vt 0.229192 0.954761
vt 0.214938 0.982395
vt 0.214938 0.954761
vt 0.200685 0.982395
vt 0.200685 0.954761
vt 0.186432 0.982395
vt 0.186432 0.954761
vt 0.172179 0.982395
vt 0.172179 0.954761
vt 0.157926 0.982395
vt 0.157926 0.954761
vt 0.143673 0.982395
vt 0.143673 0.954761
vt 0.129420 0.982395
vt 0.129420 0.954761
vt 0.115167 0.982395
vt 0.115167 0.954761
vt 0.100914 0.982395
vt 0.100914 0.954761
vt 0.086661 0.982395
vt 0.086661 0.954761
vt 0.072408 0.982395
vt 0.072408 0.954761
vt 0.316255 0.559477
vt 0.289920 0.560771
vt 0.263586 0.559477
vt 0.237505 0.555608
vt 0.211929 0.549202
vt 0.187104 0.540320
vt 0.163270 0.529047
vt 0.140655 0.515492
vt 0.119477 0.499785
vt 0.099941 0.482079
vt 0.082235 0.462543
vt 0.066528 0.441366
vt 0.052974 0.418751
vt 0.041701 0.394916
vt 0.032818 0.370091
vt 0.026412 0.344515
vt 0.022543 0.318434
vt 0.021249 0.292100
vt 0.022543 0.265766
vt 0.026412 0.239685
vt 0.032818 0.214109
vt 0.041701 0.189284
vt 0.052974 0.165449
vt 0.066528 0.142834
vt 0.082235 0.121657
vt 0.099941 0.102121
vt 0.119477 0.084414
vt 0.140655 0.068708
vt 0.163270 0.055153
vt 0.187104 0.043880
vt 0.211929 0.034998
vt 0.237505 0.028591
vt 0.263586 0.024723
vt 0.289920 0.023429
vt 0.316255 0.024723
vt 0.342335 0.028591
vt 0.367911 0.034998
vt 0.392736 0.043880
vt 0.416571 0.055153
vt 0.439186 0.068708
vt 0.460363 0.084414
vt 0.479899 0.102121
vt 0.497606 0.121657
vt 0.513312 0.142834
vt 0.526867 0.165449
vt 0.538140 0.189284
vt 0.547022 0.214109
vt 0.553429 0.239685
vt 0.557297 0.265766
vt 0.558591 0.292100
vt 0.557297 0.318434
vt 0.553429 0.344515
vt 0.547022 0.370091
vt 0.538140 0.394916
vt 0.526867 0.418751
vt 0.513312 0.441366
vt 0.497606 0.462543
vt 0.479899 0.482079
vt 0.460363 0.499785
vt 0.439186 0.515492
vt 0.416571 0.529047
vt 0.392736 0.540320
vt 0.367911 0.549202
vt 0.342335 0.555608
vt 0.058155 0.982395
vt 0.058155 0.954761
vt 0.043902 0.982395
vt 0.043902 0.954761
vt 0.703879 0.933879
vt 0.730213 0.932585
vt 0.756294 0.928717
vt 0.781870 0.922310
vt 0.806695 0.913428
vt 0.830530 0.902155
vt 0.853145 0.888600
vt 0.874322 0.872893
vt 0.893858 0.855187
vt 0.911564 0.835651
vt 0.927271 0.814474
vt 0.940826 0.791859
vt 0.952099 0.768024
vt 0.960981 0.743199
vt 0.967387 0.717623
vt 0.971256 0.691542
vt 0.972550 0.665208
vt 0.971256 0.638874
vt 0.967387 0.612793
vt 0.960981 0.587217
vt 0.952099 0.562392
vt 0.940826 0.538557
vt 0.927271 0.515942
vt 0.911564 0.494765
vt 0.893858 0.475229
vt 0.874322 0.457523
vt 0.853145 0.441816
vt 0.830530 0.428261
vt 0.806695 0.416988
vt 0.781870 0.408106
vt 0.756294 0.401699
vt 0.730213 0.397831
vt 0.703879 0.396537
vt 0.677545 0.397831
vt 0.651464 0.401699
vt 0.625888 0.408106
vt 0.601063 0.416988
vt 0.577228 0.428261
vt 0.554613 0.441816
vt 0.533436 0.457523
vt 0.513900 0.475229
vt 0.496194 0.494765
vt 0.480487 0.515942
vt 0.466932 0.538557
vt 0.455659 0.562392
vt 0.446777 0.587217
vt 0.440370 0.612793
vt 0.436502 0.638874
vt 0.435208 0.665208
vt 0.436502 0.691542
vt 0.440370 0.717623
vt 0.446777 0.743199
vt 0.455659 0.768024
vt 0.466932 0.791859
vt 0.480487 0.814474
vt 0.496194 0.835651
vt 0.513900 0.855187
vt 0.533436 0.872893
vt 0.554613 0.888600
vt 0.577228 0.902155
vt 0.601063 0.913428
vt 0.625888 0.922310
vt 0.651464 0.928717
vt 0.677545 0.932585
s 0
f 1/1/1 2/2/1 4/3/1 3/4/1
f 3/4/2 4/3/2 6/5/2 5/6/2
f 5/6/3 6/5/3 8/7/3 7/8/3
f 7/8/4 8/7/4 10/9/4 9/10/4
f 9/10/5 10/9/5 12/11/5 11/12/5
f 11/12/6 12/11/6 14/13/6 13/14/6
f 13/14/7 14/13/7 16/15/7 15/16/7
f 15/16/8 16/15/8 18/17/8 17/18/8
f 17/18/9 18/17/9 20/19/9 19/20/9
f 19/20/10 20/19/10 22/21/10 21/22/10
f 21/22/11 22/21/11 24/23/11 23/24/11
f 23/24/12 24/23/12 26/25/12 25/26/12
f 25/26/13 26/25/13 28/27/13 27/28/13
f 27/28/14 28/27/14 30/29/14 29/30/14
f 29/30/15 30/29/15 32/31/15 31/32/15
f 31/32/16 32/31/16 34/33/16 33/34/16
f 33/34/17 34/33/17 36/35/17 35/36/17
f 35/36/18 36/35/18 38/37/18 37/38/18
f 37/38/19 38/37/19 40/39/19 39/40/19
f 39/40/20 40/39/20 42/41/20 41/42/20
f 41/42/21 42/41/21 44/43/21 43/44/21
f 43/44/22 44/43/22 46/45/22 45/46/22
f 45/46/23 46/45/23 48/47/23 47/48/23
f 47/48/24 48/47/24 50/49/24 49/50/24
f 49/50/25 50/49/25 52/51/25 51/52/25
f 51/52/26 52/51/26 54/53/26 53/54/26
f 53/54/27 54/53/27 56/55/27 55/56/27
f 55/56/28 56/55/28 58/57/28 57/58/28
f 57/58/29 58/57/29 60/59/29 59/60/29
f 59/60/30 60/59/30 62/61/30 61/62/30
f 61/62/31 62/61/31 64/63/31 63/64/31
f 63/64/32 64/63/32 66/65/32 65/66/32
f 65/66/33 66/65/33 68/67/33 67/68/33
f 67/68/34 68/67/34 70/69/34 69/70/34
f 69/70/35 70/69/35 72/71/35 71/72/35
f 71/72/36 72/71/36 74/73/36 73/74/36
f 73/74/37 74/73/37 76/75/37 75/76/37
f 75/76/38 76/75/38 78/77/38 77/78/38
f 77/78/39 78/77/39 80/79/39 79/80/39
f 79/80/40 80/79/40 82/81/40 81/82/40
f 81/82/41 82/81/41 84/83/41 83/84/41
f 83/84/42 84/83/42 86/85/42 85/86/42
f 85/86/43 86/85/43 88/87/43 87/88/43
f 87/88/44 88/87/44 90/89/44 89/90/44
f 89/90/45 90/89/45 92/91/45 91/92/45
f 91/92/46 92/91/46 94/93/46 93/94/46
f 93/94/47 94/93/47 96/95/47 95/96/47
f 95/96/48 96/95/48 98/97/48 97/98/48
f 97/98/49 98/97/49 100/99/49 99/100/49
f 99/100/50 100/99/50 102/101/50 101/102/50
f 101/102/51 102/101/51 104/103/51 103/104/51
f 103/104/52 104/103/52 106/105/52 105/106/52
f 105/106/53 106/105/53 108/107/53 107/108/53
f 107/108/54 108/107/54 110/109/54 109/110/54
f 109/110/55 110/109/55 112/111/55 111/112/55
f 111/112/56 112/111/56 114/113/56 113/114/56
f 113/114/57 114/113/57 116/115/57 115/116/57
f 115/116/58 116/115/58 118/117/58 117/118/58
f 117/118/59 118/117/59 120/119/59 119/120/59
f 119/120/60 120/119/60 122/121/60 121/122/60
f 121/122/61 122/121/61 124/123/61 123/124/61
f 123/124/62 124/123/62 126/125/62 125/126/62
f 4/127/63 2/128/63 128/129/63 126/130/63 124/131/63 122/132/63 120/133/63 118/134/63 116/135/63 114/136/63 112/137/63 110/138/63 108/139/63 106/140/63 104/141/63 102/142/63 100/143/63 98/144/63 96/145/63 94/146/63 92/147/63 90/148/63 88/149/63 86/150/63 84/151/63 82/152/63 80/153/63 78/154/63 76/155/63 74/156/63 72/157/63 70/158/63 68/159/63 66/160/63 64/161/63 62/162/63 60/163/63 58/164/63 56/165/63 54/166/63 52/167/63 50/168/63 48/169/63 46/170/63 44/171/63 42/172/63 40/173/63 38/174/63 36/175/63 34/176/63 32/177/63 30/178/63 28/179/63 26/180/63 24/181/63 22/182/63 20/183/63 18/184/63 16/185/63 14/186/63 12/187/63 10/188/63 8/189/63 6/190/63
f 125/126/64 126/125/64 128/191/64 127/192/64
f 127/192/65 128/191/65 2/193/65 1/194/65
f 1/195/66 3/196/66 5/197/66 7/198/66 9/199/66 11/200/66 13/201/66 15/202/66 17/203/66 19/204/66 21/205/66 23/206/66 25/207/66 27/208/66 29/209/66 31/210/66 33/211/66 35/212/66 37/213/66 39/214/66 41/215/66 43/216/66 45/217/66 47/218/66 49/219/66 51/220/66 53/221/66 55/222/66 57/223/66 59/224/66 61/225/66 63/226/66 65/227/66 67/228/66 69/229/66 71/230/66 73/231/66 75/232/66 77/233/66 79/234/66 81/235/66 83/236/66 85/237/66 87/238/66 89/239/66 91/240/66 93/241/66 95/242/66 97/243/66 99/244/66 101/245/66 103/246/66 105/247/66 107/248/66 109/249/66 111/250/66 113/251/66 115/252/66 117/253/66 119/254/66 121/255/66 123/256/66 125/257/66 127/258/66
