# Blender 5.0.1
# www.blender.org
mtllib rook.mtl
o rook
v 0.000000 0.000001 -0.020000
v 0.000000 0.057600 -0.011459
v 0.014142 0.000001 -0.014142
v 0.008103 0.057600 -0.008103
v 0.020000 0.000001 -0.000000
v 0.011459 0.057600 -0.000000
v 0.014142 0.000001 0.014142
v 0.008103 0.057600 0.008102
v 0.000000 0.000001 0.020000
v 0.000000 0.057600 0.011458
v -0.014142 0.000001 0.014142
v -0.008102 0.057600 0.008102
v -0.020000 0.000001 -0.000000
v -0.011459 0.057600 -0.000000
v -0.014142 0.000001 -0.014142
v -0.008102 0.057600 -0.008103
v 0.000000 0.018549 -0.013144
v 0.000000 0.020412 -0.013157
v 0.009303 0.020412 -0.009303
v 0.009294 0.018549 -0.009294
v 0.013157 0.020412 -0.000000
v 0.013144 0.018549 -0.000000
v 0.009303 0.020412 0.009303
v 0.009294 0.018549 0.009294
v 0.000000 0.020412 0.013156
v 0.000000 0.018549 0.013143
v -0.009303 0.020412 0.009303
v -0.009294 0.018549 0.009294
v -0.013156 0.020412 -0.000000
v -0.013143 0.018549 -0.000000
v -0.009303 0.020412 -0.009303
v -0.009294 0.018549 -0.009294
v 0.000000 0.002144 -0.019928
v 0.014091 0.002144 -0.014091
v 0.019928 0.002144 -0.000000
v 0.014091 0.002144 0.014091
v 0.000000 0.002144 0.019928
v -0.014091 0.002144 0.014091
v -0.019928 0.002144 -0.000000
v -0.014091 0.002144 -0.014091
v 0.000000 0.010527 -0.018485
v 0.013071 0.010527 -0.013071
v 0.018485 0.010527 -0.000000
v 0.013071 0.010527 0.013071
v 0.000000 0.010527 0.018485
v -0.013071 0.010527 0.013071
v -0.018485 0.010527 -0.000000
v -0.013071 0.010527 -0.013071
v 0.000000 0.005715 -0.016146
v 0.011417 0.005715 -0.011417
v 0.016146 0.005715 -0.000000
v 0.011417 0.005715 0.011417
v 0.000000 0.005715 0.016146
v -0.011417 0.005715 0.011417
v -0.016146 0.005715 -0.000000
v -0.011417 0.005715 -0.011417
v 0.000000 0.022390 -0.011921
v 0.000000 0.051016 -0.009776
v 0.000000 0.052472 -0.014067
v 0.009947 0.052472 -0.009947
v 0.006912 0.051016 -0.006913
v 0.008429 0.022390 -0.008429
v 0.014067 0.052472 -0.000000
v 0.009776 0.051016 -0.000000
v 0.011921 0.022390 -0.000000
v 0.009947 0.052472 0.009946
v 0.006912 0.051016 0.006912
v 0.008429 0.022390 0.008429
v 0.000000 0.052472 0.014066
v 0.000000 0.051016 0.009775
v 0.000000 0.022390 0.011920
v -0.009946 0.052472 0.009946
v -0.006912 0.051016 0.006912
v -0.008429 0.022390 0.008429
v -0.014066 0.052472 -0.000000
v -0.009775 0.051016 -0.000000
v -0.011920 0.022390 -0.000000
v -0.009946 0.052472 -0.009947
v -0.006912 0.051016 -0.006913
v -0.008429 0.022390 -0.008429
v -0.009616 0.057600 0.009616
v 0.000000 0.057600 0.013600
v -0.013600 0.057600 -0.000000
v -0.009616 0.057600 -0.009617
v 0.000000 0.057600 -0.013600
v 0.009617 0.057600 -0.009617
v 0.013600 0.057600 -0.000000
v 0.009617 0.057600 0.009616
v -0.008102 0.053848 0.008102
v 0.000000 0.053848 0.011458
v -0.011459 0.053848 -0.000000
v -0.008102 0.053848 -0.008103
v 0.000000 0.053848 -0.011459
v 0.008103 0.053848 -0.008103
v 0.011459 0.053848 -0.000000
v 0.008103 0.053848 0.008102
v 0.000000 0.053848 -0.013925
v 0.009847 0.053848 -0.009847
v 0.013925 0.053848 -0.000000
v 0.009847 0.053848 0.009846
v 0.000000 0.053848 0.013925
v -0.009846 0.053848 0.009846
v -0.013925 0.053848 -0.000000
v -0.009846 0.053848 -0.009847
v -0.009394 0.002144 0.016036
v -0.004697 0.002144 0.017982
v -0.004714 0.000001 0.018047
v -0.009428 0.000001 0.016094
v -0.007611 0.005715 0.012993
v -0.003805 0.005715 0.014569
v -0.008714 0.010527 0.014875
v -0.004357 0.010527 0.016680
v -0.006411 0.057600 0.010944
v -0.003205 0.057600 0.012272
v -0.006202 0.020412 0.010587
v -0.003101 0.020412 0.011872
v -0.006196 0.018549 0.010577
v -0.003098 0.018549 0.011860
v -0.002809 0.022390 0.010756
v -0.005619 0.022390 0.009592
v -0.002304 0.051016 0.008821
v -0.004608 0.051016 0.007866
v -0.003315 0.052472 0.012693
v -0.006631 0.052472 0.011320
v -0.005401 0.057600 0.009221
v -0.002701 0.057600 0.010340
v -0.005401 0.053848 0.009221
v -0.002701 0.053848 0.010340
v -0.003282 0.053848 0.012565
v -0.006564 0.053848 0.011206
v -0.017982 0.002144 0.004697
v -0.016037 0.002144 0.009394
v -0.016095 0.000001 0.009428
v -0.018047 0.000001 0.004714
v -0.014570 0.005715 0.003805
v -0.012993 0.005715 0.007611
v -0.016680 0.010527 0.004357
v -0.014875 0.010527 0.008714
v -0.011860 0.018549 0.003098
v -0.010577 0.018549 0.006196
v -0.012272 0.057600 0.003205
v -0.010944 0.057600 0.006411
v -0.011872 0.020412 0.003101
v -0.010587 0.020412 0.006202
v -0.009593 0.022390 0.005619
v -0.010756 0.022390 0.002809
v -0.007866 0.051016 0.004608
v -0.008821 0.051016 0.002304
v -0.011320 0.052472 0.006631
v -0.012693 0.052472 0.003315
v -0.010340 0.057600 0.002701
v -0.009221 0.057600 0.005401
v -0.010340 0.053848 0.002701
v -0.009221 0.053848 0.005401
v -0.011206 0.053848 0.006564
v -0.012565 0.053848 0.003282
v 0.004697 0.002144 0.017982
v 0.009394 0.002144 0.016036
v 0.009428 0.000001 0.016094
v 0.004714 0.000001 0.018047
v 0.003806 0.005715 0.014569
v 0.007612 0.005715 0.012993
v 0.004357 0.010527 0.016680
v 0.008714 0.010527 0.014875
v 0.003098 0.018549 0.011860
v 0.006196 0.018549 0.010577
v 0.003206 0.057600 0.012272
v 0.006411 0.057600 0.010944
v 0.003101 0.020412 0.011872
v 0.006202 0.020412 0.010587
v 0.005619 0.022390 0.009592
v 0.002810 0.022390 0.010756
v 0.004608 0.051016 0.007866
v 0.002304 0.051016 0.008821
v 0.006631 0.052472 0.011320
v 0.003316 0.052472 0.012693
v 0.002701 0.057600 0.010340
v 0.005402 0.057600 0.009221
v 0.002701 0.053848 0.010340
v 0.005402 0.053848 0.009221
v 0.006565 0.053848 0.011206
v 0.003282 0.053848 0.012565
v 0.016037 0.002144 0.009394
v 0.017982 0.002144 0.004697
v 0.018048 0.000001 0.004714
v 0.016095 0.000001 0.009428
v 0.012994 0.005715 0.007611
v 0.014570 0.005715 0.003805
v 0.014876 0.010527 0.008714
v 0.016680 0.010527 0.004357
v 0.010944 0.057600 0.006411
v 0.012272 0.057600 0.003205
v 0.010588 0.020412 0.006202
v 0.011872 0.020412 0.003101
v 0.010577 0.018549 0.006196
v 0.011861 0.018549 0.003098
v 0.010757 0.022390 0.002809
v 0.009593 0.022390 0.005619
v 0.008821 0.051016 0.002304
v 0.007867 0.051016 0.004608
v 0.012693 0.052472 0.003315
v 0.011320 0.052472 0.006631
v 0.009221 0.057600 0.005401
v 0.010340 0.057600 0.002701
v 0.009221 0.053848 0.005401
v 0.010340 0.053848 0.002701
v 0.012566 0.053848 0.003282
v 0.011206 0.053848 0.006564
v 0.016095 0.000001 -0.009428
v 0.018048 0.000001 -0.004714
v 0.017982 0.002144 -0.004697
v 0.016037 0.002144 -0.009394
v 0.014570 0.005715 -0.003806
v 0.012994 0.005715 -0.007612
v 0.012272 0.057600 -0.003206
v 0.010944 0.057600 -0.006411
v 0.011872 0.020412 -0.003101
v 0.010588 0.020412 -0.006202
v 0.016680 0.010527 -0.004357
v 0.014876 0.010527 -0.008714
v 0.011861 0.018549 -0.003098
v 0.010577 0.018549 -0.006196
v 0.009593 0.022390 -0.005620
v 0.010757 0.022390 -0.002810
v 0.007867 0.051016 -0.004608
v 0.008821 0.051016 -0.002304
v 0.011320 0.052472 -0.006631
v 0.012693 0.052472 -0.003316
v 0.010340 0.057600 -0.002701
v 0.009221 0.057600 -0.005402
v 0.010340 0.053848 -0.002701
v 0.009221 0.053848 -0.005402
v 0.011206 0.053848 -0.006565
v 0.012566 0.053848 -0.003282
v 0.004714 0.000001 -0.018048
v 0.009428 0.000001 -0.016095
v 0.009394 0.002144 -0.016037
v 0.004697 0.002144 -0.017982
v 0.007612 0.005715 -0.012994
v 0.003806 0.005715 -0.014570
v 0.008714 0.010527 -0.014876
v 0.004357 0.010527 -0.016681
v 0.006411 0.057600 -0.010944
v 0.003206 0.057600 -0.012272
v 0.006202 0.020412 -0.010588
v 0.003101 0.020412 -0.011872
v 0.006196 0.018549 -0.010577
v 0.003098 0.018549 -0.011861
v 0.002810 0.022390 -0.010757
v 0.005619 0.022390 -0.009593
v 0.002304 0.051016 -0.008821
v 0.004608 0.051016 -0.007867
v 0.003316 0.052472 -0.012694
v 0.006631 0.052472 -0.011320
v 0.005402 0.057600 -0.009222
v 0.002701 0.057600 -0.010340
v 0.005402 0.053848 -0.009222
v 0.002701 0.053848 -0.010340
v 0.003282 0.053848 -0.012566
v 0.006565 0.053848 -0.011206
v -0.009428 0.000001 -0.016095
v -0.004714 0.000001 -0.018048
v -0.004697 0.002144 -0.017982
v -0.009394 0.002144 -0.016037
v -0.003805 0.005715 -0.014570
v -0.007611 0.005715 -0.012994
v -0.004357 0.010527 -0.016681
v -0.008714 0.010527 -0.014876
v -0.003101 0.020412 -0.011872
v -0.006202 0.020412 -0.010588
v -0.003098 0.018549 -0.011861
v -0.006196 0.018549 -0.010577
v -0.003205 0.057600 -0.012272
v -0.006411 0.057600 -0.010945
v -0.005619 0.022390 -0.009593
v -0.002809 0.022390 -0.010757
v -0.004608 0.051016 -0.007867
v -0.002304 0.051016 -0.008821
v -0.006631 0.052472 -0.011320
v -0.003315 0.052472 -0.012694
v -0.002701 0.057600 -0.010340
v -0.005401 0.057600 -0.009222
v -0.002701 0.053848 -0.010340
v -0.005401 0.053848 -0.009222
v -0.006564 0.053848 -0.011206
v -0.003282 0.053848 -0.012566
v -0.016037 0.002144 -0.009394
v -0.017982 0.002144 -0.004697
v -0.018047 0.000001 -0.004714
v -0.016095 0.000001 -0.009428
v -0.012993 0.005715 -0.007612
v -0.014570 0.005715 -0.003806
v -0.014875 0.010527 -0.008714
v -0.016680 0.010527 -0.004357
v -0.010587 0.020412 -0.006202
v -0.011872 0.020412 -0.003101
v -0.010577 0.018549 -0.006196
v -0.011860 0.018549 -0.003098
v -0.010944 0.057600 -0.006411
v -0.012272 0.057600 -0.003206
v -0.010756 0.022390 -0.002810
v -0.009593 0.022390 -0.005620
v -0.008821 0.051016 -0.002304
v -0.007866 0.051016 -0.004608
v -0.012693 0.052472 -0.003316
v -0.011320 0.052472 -0.006631
v -0.009221 0.057600 -0.005402
v -0.010340 0.057600 -0.002701
v -0.009221 0.053848 -0.005402
v -0.010340 0.053848 -0.002701
v -0.012565 0.053848 -0.003282
v -0.011206 0.053848 -0.006565
vn -0.3491 -0.4097 0.8428
vn 0.9239 -0.0063 -0.3827
vn -0.3491 -0.4097 -0.8428
vn -0.3260 0.5240 0.7869
vn -0.6604 0.6994 0.2735
vn 0.3815 0.0799 -0.9209
vn 0.3827 -0.0063 -0.9239
vn 0.7869 0.5240 -0.3259
vn 0.3260 0.5240 0.7869
vn 0.3259 0.5240 0.7869
vn 0.2735 0.6994 -0.6604
vn 0.9209 0.0798 -0.3815
vn 0.8428 -0.4097 -0.3491
vn 0.8428 -0.4097 0.3491
vn 0.3491 -0.4097 0.8428
vn 0.6604 0.6994 0.2735
vn 0.9209 0.0799 0.3815
vn 0.9239 -0.0063 0.3827
vn 0.3491 -0.4097 -0.8428
vn -0.8428 -0.4097 -0.3491
vn 0.3827 -0.0063 0.9239
vn 0.3815 0.0798 0.9209
vn -0.0000 -1.0000 -0.0000
vn -0.3827 -0.0000 -0.9239
vn -0.8428 -0.4097 0.3491
vn -0.7869 0.5240 -0.3259
vn -0.3827 -0.0063 0.9239
vn 0.3825 0.0311 0.9234
vn -0.3815 0.0799 0.9209
vn -0.3825 0.0311 0.9234
vn 0.9234 0.0311 -0.3825
vn 0.9234 0.0311 0.3825
vn 0.3259 0.5240 -0.7869
vn -0.9239 -0.0063 0.3827
vn -0.9209 0.0798 0.3815
vn -0.3825 0.0311 -0.9234
vn -0.9234 0.0311 0.3825
vn 0.3825 0.0311 -0.9234
vn -0.9234 0.0311 -0.3825
vn 0.7869 0.5240 0.3260
vn -0.9239 -0.0063 -0.3827
vn -0.9209 0.0799 -0.3815
vn -0.2735 0.6994 -0.6604
vn 0.6604 0.6994 -0.2735
vn -0.3259 0.5240 -0.7869
vn -0.3827 -0.0063 -0.9239
vn -0.2735 0.6994 0.6604
vn -0.3815 0.0798 -0.9209
vn -0.6604 0.6994 -0.2735
vn -0.7869 0.5240 0.3259
vn 0.2735 0.6994 0.6604
vn -0.3314 0.5000 -0.8001
vn -0.3818 0.0691 -0.9217
vn -0.1319 -0.9388 -0.3184
vn -0.1319 -0.9387 -0.3184
vn -0.8001 0.5000 -0.3314
vn -0.9217 0.0691 -0.3818
vn -0.3184 -0.9388 -0.1319
vn -0.8001 0.5000 0.3314
vn -0.9217 0.0691 0.3818
vn -0.3184 -0.9388 0.1319
vn -0.3184 -0.9387 0.1319
vn -0.3314 0.5000 0.8001
vn -0.3818 0.0691 0.9217
vn -0.1319 -0.9388 0.3184
vn 0.3314 0.5000 0.8001
vn 0.3818 0.0691 0.9217
vn 0.1319 -0.9388 0.3184
vn 0.1319 -0.9387 0.3184
vn 0.8001 0.5000 0.3314
vn 0.9217 0.0691 0.3818
vn 0.3184 -0.9388 0.1319
vn 0.8001 0.5000 -0.3314
vn 0.9217 0.0691 -0.3818
vn 0.3184 -0.9388 -0.1319
vn 0.3184 -0.9387 -0.1319
vn 0.3314 0.5000 -0.8001
vn 0.3818 0.0691 -0.9217
vn 0.1319 -0.9388 -0.3184
vn -0.0000 1.0000 -0.0000
vn -0.9239 -0.0000 0.3827
vn 0.3827 -0.0000 0.9239
vn 0.9239 -0.0000 -0.3827
vn -0.9239 -0.0000 -0.3827
vn -0.3827 -0.0000 0.9239
vn 0.9239 -0.0000 0.3827
vn 0.3827 -0.0000 -0.9239
vn -0.3810 0.0945 -0.9197
vn -0.9197 0.0945 -0.3810
vn -0.9197 0.0945 0.3810
vn -0.3810 0.0945 0.9197
vn 0.3810 0.0945 0.9197
vn 0.9197 0.0945 0.3810
vn 0.9197 0.0945 -0.3810
vn 0.3810 0.0946 -0.9197
vn -0.9675 -0.0000 -0.2527
vn 0.8629 -0.0000 0.5055
vn -0.1319 -0.9387 0.3184
vn -0.3815 0.0798 0.9209
vn -0.3259 0.5240 0.7869
vn -0.9209 0.0799 0.3815
vn 0.3815 0.0799 0.9209
vn 0.3184 -0.9387 0.1319
vn 0.7869 0.5240 0.3259
vn 0.9209 0.0798 0.3815
vn 0.7869 0.5240 -0.3260
vn 0.3810 0.0945 -0.9197
vn 0.1319 -0.9387 -0.3184
vn 0.3815 0.0798 -0.9209
vn -0.2527 -0.0000 -0.9675
vn -0.8628 -0.0000 -0.5055
vn -0.3184 -0.9387 -0.1319
vn -0.9209 0.0798 -0.3815
vn -0.9675 -0.0000 0.2527
vn -0.7869 0.5240 -0.3260
vn 0.5054 -0.0000 -0.8629
vn 0.2527 -0.0000 0.9675
vn -0.5055 -0.0000 0.8628
vn 0.9675 -0.0000 -0.2527
vn -0.8629 -0.0000 0.5055
vn 0.2527 -0.0000 -0.9675
vn 0.8629 -0.0000 -0.5054
vn -0.5055 -0.0000 -0.8629
vn 0.9675 -0.0000 0.2527
vn 0.5055 -0.0000 0.8629
vn -0.2527 -0.0000 0.9675
s 1
usemtl Material.001
f 109//1 111//1 46//1 54//1
f 221//2 217//2 21//2 22//2
f 265//3 267//3 41//3 49//3
f 118//4 112//4 45//4 26//4
f 136//5 132//5 38//5 54//5
f 260//6 243//6 86//6 98//6
f 247//7 245//7 19//7 20//7
f 222//8 220//8 42//8 20//8
f 166//9 164//9 44//10 24//10
f 240//11 238//11 33//11 49//11
f 234//12 215//12 87//12 99//12
f 213//13 219//13 43//13 51//13
f 187//14 189//14 44//14 52//14
f 161//15 163//15 45//15 53//15
f 188//16 184//16 35//16 51//16
f 208//17 191//17 88//17 100//17
f 195//18 193//18 23//18 24//18
f 239//19 241//19 42//19 50//19
f 291//20 293//20 48//20 56//20
f 165//21 169//21 25//21 26//21
f 182//22 167//22 82//22 101//22
f 9//23 107//23 108//23 11//23 133//23 134//23 13//23 289//23 290//23 15//23 261//23 262//23 1//23 235//23 236//23 3//23 209//23 210//23 5//23 185//23 186//23 7//23 159//23 160//23
f 178//24 8//24 96//24 180//24
f 135//25 137//25 47//25 55//25
f 298//26 294//26 47//26 30//26
f 117//27 115//27 27//27 28//27
f 160//28 157//28 37//28 9//28
f 130//29 113//29 81//29 102//29
f 108//30 105//30 38//30 11//30
f 210//31 211//31 35//31 5//31
f 186//32 183//32 36//32 7//32
f 248//33 242//33 41//33 17//33
f 139//34 143//34 29//34 30//34
f 156//35 141//35 83//35 103//35
f 262//36 263//36 33//36 1//36
f 134//37 131//37 39//37 13//37
f 236//38 237//38 34//38 3//38
f 290//39 287//39 40//39 15//39
f 196//40 190//40 43//40 22//40
f 297//41 295//41 31//41 32//41
f 312//42 299//42 84//42 104//42
f 266//43 264//43 40//43 56//43
f 214//44 212//44 34//44 50//44
f 272//45 268//45 48//45 32//45
f 271//46 269//46 18//46 17//46
f 110//47 106//47 37//47 53//47
f 286//48 273//48 85//48 97//48
f 292//49 288//49 39//49 55//49
f 140//50 138//50 46//50 28//50
f 162//51 158//51 36//51 52//51
f 269//52 276//52 57//52 18//52
f 276//53 278//53 58//53 57//53
f 278//54 280//54 59//55 58//55
f 295//56 302//56 80//56 31//56
f 302//57 304//57 79//57 80//57
f 304//58 306//58 78//58 79//58
f 143//59 146//59 77//59 29//59
f 146//60 148//60 76//60 77//60
f 148//61 150//61 75//62 76//62
f 115//63 120//63 74//63 27//63
f 120//64 122//64 73//64 74//64
f 122//65 124//65 72//65 73//65
f 169//66 172//66 71//66 25//66
f 172//67 174//67 70//67 71//67
f 174//68 176//68 69//69 70//69
f 193//70 198//70 68//70 23//70
f 198//71 200//71 67//71 68//71
f 200//72 202//72 66//72 67//72
f 217//73 224//73 65//73 21//73
f 224//74 226//74 64//74 65//74
f 226//75 228//75 63//76 64//76
f 245//77 250//77 62//77 19//77
f 250//78 252//78 61//78 62//78
f 252//79 254//79 60//79 61//79
f 125//80 12//80 81//80 113//80
f 151//80 14//80 83//80 141//80
f 307//80 16//80 84//80 299//80
f 281//80 2//80 85//80 273//80
f 255//80 4//80 86//80 243//80
f 229//80 6//80 87//80 215//80
f 203//80 8//80 88//80 191//80
f 177//80 10//80 82//80 167//80
f 89//80 127//80 128//80 90//80 179//80 180//80 96//80 205//80 206//80 95//80 231//80 232//80 94//80 257//80 258//80 93//80 283//80 284//80 92//80 309//80 310//80 91//80 153//80 154//80
f 230//81 4//81 94//81 232//81
f 282//82 16//82 92//82 284//82
f 152//83 12//83 89//83 154//83
f 204//84 6//84 95//84 206//84
f 256//85 2//85 93//85 258//85
f 308//86 14//86 91//86 310//86
f 126//87 10//87 90//87 128//87
f 280//88 286//88 97//88 59//88
f 306//89 312//89 104//89 78//89
f 150//90 156//90 103//90 75//90
f 124//91 130//91 102//91 72//91
f 176//92 182//92 101//92 69//92
f 202//93 208//93 100//93 66//93
f 228//94 234//94 99//94 63//94
f 254//95 260//95 98//95 60//95
f 69//91 101//91 129//91 123//91
f 123//91 129//91 130//91 124//91
f 12//87 125//87 127//87 89//87
f 129//96 114//96 126//96 128//96
f 10//80 126//80 114//80 82//80
f 130//97 127//97 125//97 113//97
f 70//98 69//98 123//65 121//65
f 121//65 123//65 124//65 122//65
f 71//64 70//64 121//64 119//64
f 119//64 121//64 122//64 120//64
f 25//63 71//63 119//63 116//63
f 116//63 119//63 120//63 115//63
f 54//47 38//47 105//47 109//47
f 109//47 105//47 106//47 110//47
f 9//30 37//30 106//30 107//30
f 107//30 106//30 105//30 108//30
f 101//99 82//99 114//99 129//99
f 130//80 129//80 128//80 127//80
f 26//27 25//27 116//27 118//27
f 118//27 116//27 115//27 117//27
f 28//100 46//100 111//100 117//100
f 117//100 111//100 112//4 118//4
f 53//1 45//1 112//1 110//1
f 110//1 112//1 111//1 109//1
f 72//90 102//90 155//90 149//90
f 149//90 155//90 156//90 150//90
f 14//83 151//83 153//83 91//83
f 12//80 152//80 142//80 81//80
f 73//61 72//61 149//61 147//61
f 147//61 149//61 150//61 148//61
f 74//60 73//60 147//60 145//60
f 145//60 147//60 148//60 146//60
f 27//59 74//59 145//59 144//59
f 144//59 145//59 146//59 143//59
f 30//50 47//50 137//50 139//50
f 139//50 137//50 138//50 140//50
f 11//37 38//37 132//37 133//37
f 133//37 132//37 131//37 134//37
f 102//101 81//101 142//101 155//101
f 28//34 27//34 144//34 140//34
f 140//34 144//34 143//34 139//34
f 54//25 46//25 138//25 136//25
f 136//25 138//25 137//25 135//25
f 55//5 39//5 131//5 135//5
f 135//5 131//5 132//5 136//5
f 66//92 100//92 181//92 175//92
f 175//92 181//92 182//92 176//92
f 8//80 178//80 168//80 88//80
f 67//68 66//68 175//68 173//68
f 173//68 175//68 176//68 174//68
f 68//67 67//67 173//67 171//67
f 171//67 173//67 174//67 172//67
f 23//66 68//66 171//66 170//66
f 170//66 171//66 172//66 169//66
f 53//51 37//51 157//51 161//51
f 161//51 157//51 158//51 162//51
f 7//28 36//28 158//28 159//28
f 159//28 158//28 157//28 160//28
f 10//24 177//24 179//24 90//24
f 100//102 88//102 168//102 181//102
f 24//21 23//21 170//21 166//21
f 166//21 170//21 169//21 165//21
f 52//15 44//15 164//15 162//15
f 162//15 164//15 163//15 161//15
f 26//10 45//10 163//9 165//9
f 165//9 163//9 164//9 166//9
f 63//93 99//93 207//93 201//93
f 201//93 207//93 208//93 202//93
f 8//84 203//84 205//84 96//84
f 6//80 204//80 192//80 87//80
f 64//103 63//103 201//72 199//72
f 199//72 201//72 202//72 200//72
f 65//71 64//71 199//71 197//71
f 197//71 199//71 200//71 198//71
f 21//70 65//70 197//70 194//70
f 194//70 197//70 198//70 193//70
f 24//104 44//104 189//104 195//104
f 195//104 189//104 190//40 196//40
f 5//32 35//32 184//32 185//32
f 185//32 184//32 183//32 186//32
f 22//18 21//18 194//18 196//18
f 196//18 194//18 193//18 195//18
f 99//105 87//105 192//105 207//105
f 52//16 36//16 183//16 187//16
f 187//16 183//16 184//16 188//16
f 51//14 43//14 190//14 188//14
f 188//14 190//14 189//14 187//14
f 60//94 98//94 233//94 227//94
f 227//94 233//94 234//94 228//94
f 6//81 229//81 231//81 95//81
f 4//80 230//80 216//80 86//80
f 61//75 60//75 227//75 225//75
f 225//75 227//75 228//75 226//75
f 62//74 61//74 225//74 223//74
f 223//74 225//74 226//74 224//74
f 19//73 62//73 223//73 218//73
f 218//73 223//73 224//73 217//73
f 51//44 35//44 211//44 213//44
f 213//44 211//44 212//44 214//44
f 3//31 34//31 212//31 209//31
f 209//31 212//31 211//31 210//31
f 50//13 42//13 220//13 214//13
f 214//13 220//13 219//13 213//13
f 98//12 86//12 216//12 233//12
f 22//106 43//106 219//106 221//106
f 221//106 219//106 220//8 222//8
f 20//2 19//2 218//2 222//2
f 222//2 218//2 217//2 221//2
f 59//107 97//107 259//107 253//107
f 253//107 259//107 260//95 254//95
f 4//85 255//85 257//85 94//85
f 2//80 256//80 244//80 85//80
f 58//108 59//108 253//79 251//79
f 251//79 253//79 254//79 252//79
f 57//78 58//78 251//78 249//78
f 249//78 251//78 252//78 250//78
f 18//77 57//77 249//77 246//77
f 246//77 249//77 250//77 245//77
f 1//38 33//38 238//38 235//38
f 235//38 238//38 237//38 236//38
f 20//33 42//33 241//33 247//33
f 247//33 241//33 242//33 248//33
f 49//19 41//19 242//19 240//19
f 240//19 242//19 241//19 239//19
f 50//11 34//11 237//11 239//11
f 239//11 237//11 238//11 240//11
f 17//7 18//7 246//7 248//7
f 248//7 246//7 245//7 247//7
f 97//109 85//109 244//109 259//109
f 78//88 104//88 285//88 279//88
f 279//88 285//88 286//88 280//88
f 2//82 281//82 283//82 93//82
f 16//80 282//80 274//80 84//80
f 79//54 78//54 279//54 277//54
f 277//54 279//54 280//54 278//54
f 80//53 79//53 277//53 275//53
f 275//53 277//53 278//53 276//53
f 31//52 80//52 275//52 270//52
f 270//52 275//52 276//52 269//52
f 104//48 84//48 274//48 285//48
f 32//46 31//46 270//46 272//46
f 272//46 270//46 269//46 271//46
f 17//45 41//45 267//45 271//45
f 271//45 267//45 268//45 272//45
f 49//43 33//43 263//43 265//43
f 265//43 263//43 264//43 266//43
f 15//36 40//36 264//36 261//36
f 261//36 264//36 263//36 262//36
f 56//3 48//3 268//3 266//3
f 266//3 268//3 267//3 265//3
f 75//89 103//89 311//89 305//89
f 305//89 311//89 312//89 306//89
f 16//86 307//86 309//86 92//86
f 231//110 229//110 215//110 234//110
f 14//80 308//80 300//80 83//80
f 257//111 255//111 243//111 260//111
f 76//112 75//112 305//58 303//58
f 303//58 305//58 306//58 304//58
f 77//57 76//57 303//57 301//57
f 301//57 303//57 304//57 302//57
f 29//56 77//56 301//56 296//56
f 296//56 301//56 302//56 295//56
f 56//49 40//49 287//49 291//49
f 291//49 287//49 288//49 292//49
f 103//113 83//113 300//113 311//113
f 283//114 281//114 273//114 286//114
f 30//41 29//41 296//41 298//41
f 298//41 296//41 295//41 297//41
f 13//39 39//39 288//39 289//39
f 289//39 288//39 287//39 290//39
f 32//26 48//26 293//115 297//115
f 297//115 293//115 294//26 298//26
f 55//20 47//20 294//20 292//20
f 292//20 294//20 293//20 291//20
f 205//116 203//116 191//116 208//116
f 309//80 312//80 311//80 310//80
f 153//117 151//117 141//117 156//117
f 309//118 307//118 299//118 312//118
f 167//119 182//119 179//119 177//119
f 179//80 182//80 181//80 180//80
f 168//120 178//120 180//120 181//120
f 310//121 311//121 300//121 308//121
f 283//80 286//80 285//80 284//80
f 257//80 260//80 259//80 258//80
f 205//80 208//80 207//80 206//80
f 284//122 285//122 274//122 282//122
f 154//123 155//123 142//123 152//123
f 153//80 156//80 155//80 154//80
f 258//124 259//124 244//124 256//124
f 231//80 234//80 233//80 232//80
f 232//125 233//125 216//125 230//125
f 206//126 207//126 192//126 204//126
